<svg width="504" height="341" viewBox="0 0 504 341" fill="none" xmlns="http://www.w3.org/2000/svg">
<path d="M251.996 146.046C250.089 146.046 248.542 144.499 248.542 142.593V60.8232C248.542 58.917 250.089 57.3701 251.996 57.3701C253.902 57.3701 255.449 58.917 255.449 60.8232V142.593C255.449 144.503 253.902 146.046 251.996 146.046V146.046Z" fill="#CB1717"/>
<path d="M238.186 146.526C236.28 146.526 234.733 144.979 234.733 143.073V55.6201C234.733 53.7139 236.28 52.167 238.186 52.167C240.092 52.167 241.639 53.7139 241.639 55.6201V143.073C241.639 144.979 240.092 146.526 238.186 146.526Z" fill="#CB1717"/>
<path d="M224.376 147.877C222.47 147.877 220.923 146.33 220.923 144.423L220.927 45.0644C220.927 43.1582 222.474 41.6113 224.38 41.6113C226.286 41.6113 227.833 43.1582 227.833 45.0644V144.427C227.829 146.334 226.286 147.877 224.376 147.877V147.877Z" fill="#CB1717"/>
<path d="M210.566 150.096C208.66 150.096 207.113 148.549 207.113 146.643V33.0928C207.113 31.1866 208.66 29.6396 210.566 29.6396C212.472 29.6396 214.019 31.1866 214.019 33.0928V146.643C214.019 148.549 212.472 150.092 210.566 150.092V150.096Z" fill="#CB1717"/>
<path d="M196.756 153.116C194.85 153.116 193.303 151.569 193.303 149.663V21.7529C193.303 19.8467 194.85 18.2998 196.756 18.2998C198.662 18.2998 200.209 19.8467 200.209 21.7529V149.663C200.209 151.569 198.662 153.116 196.756 153.116Z" fill="#CB1717"/>
<path d="M182.946 156.946C181.04 156.946 179.493 155.399 179.493 153.493V12.3828C179.493 10.4766 181.04 8.92969 182.946 8.92969C184.852 8.92969 186.399 10.4766 186.399 12.3828V153.493C186.395 155.403 184.852 156.946 182.946 156.946Z" fill="#CB1717"/>
<path d="M169.136 161.586C167.23 161.586 165.683 160.039 165.683 158.133V5.97263C165.683 4.06643 167.23 2.51953 169.136 2.51953C171.042 2.51953 172.589 4.06643 172.589 5.97263V158.133C172.589 160.039 171.042 161.586 169.136 161.586Z" fill="#CB1717"/>
<path d="M155.326 167.086C153.419 167.086 151.873 165.539 151.873 163.633V3.4531C151.873 1.5469 153.419 0 155.326 0C157.232 0 158.779 1.5469 158.779 3.4531V163.633C158.779 165.539 157.232 167.086 155.326 167.086V167.086Z" fill="#CB1717"/>
<path d="M141.516 314.876C139.609 314.876 138.062 313.329 138.062 311.423V5.58298C138.062 3.67678 139.609 2.12988 141.516 2.12988C143.422 2.12988 144.969 3.67678 144.969 5.58298V311.423C144.969 313.325 143.422 314.876 141.516 314.876Z" fill="#CB1717"/>
<path d="M127.706 307.666C125.8 307.666 124.253 306.119 124.253 304.213L124.257 12.2832C124.257 10.377 125.804 8.83008 127.71 8.83008C129.616 8.83008 131.163 10.377 131.163 12.2832V304.213C131.159 306.115 129.616 307.662 127.706 307.662V307.666Z" fill="#CB1717"/>
<path d="M113.896 299.416C111.99 299.416 110.443 297.869 110.443 295.963V21.623C110.443 19.7168 111.99 18.1699 113.896 18.1699C115.802 18.1699 117.349 19.7168 117.349 21.623V295.963C117.349 297.865 115.802 299.412 113.896 299.412V299.416Z" fill="#CB1717"/>
<path d="M100.086 290.056C98.1797 290.056 96.6328 288.509 96.6328 286.603V32.7431C96.6328 30.8369 98.1797 29.29 100.086 29.29C101.992 29.29 103.539 30.8369 103.539 32.7431V286.603C103.539 288.509 101.992 290.056 100.086 290.056Z" fill="#CB1717"/>
<path d="M86.2856 279.516C84.3794 279.516 82.8325 277.969 82.8325 276.063V45.2832C82.8325 43.377 84.3794 41.8301 86.2856 41.8301C88.1918 41.8301 89.7387 43.377 89.7387 45.2832V276.063C89.7348 277.969 88.1918 279.516 86.2856 279.516Z" fill="#CB1717"/>
<path d="M72.4658 267.667C70.5596 267.667 69.0127 266.12 69.0127 264.214L69.0166 59.1435C69.0166 57.2373 70.5635 55.6904 72.4697 55.6904C74.3759 55.6904 75.9228 57.2373 75.9228 59.1435V264.214C75.9189 266.12 74.3759 267.667 72.4658 267.667V267.667Z" fill="#CB1717"/>
<path d="M58.6557 254.367C56.7495 254.367 55.2026 252.82 55.2026 250.913V74.3134C55.2026 72.4072 56.7495 70.8604 58.6557 70.8604C60.5619 70.8604 62.1088 72.4072 62.1088 74.3134V250.913C62.1088 252.82 60.5619 254.367 58.6557 254.367Z" fill="#CB1717"/>
<path d="M44.8559 239.426C42.9497 239.426 41.4028 237.88 41.4028 235.973V90.9834C41.4028 89.0772 42.9497 87.5303 44.8559 87.5303C46.7621 87.5303 48.309 89.0772 48.309 90.9834V235.963C48.309 237.87 46.7621 239.42 44.8559 239.42V239.426Z" fill="#CB1717"/>
<path d="M31.0356 222.416C29.1294 222.416 27.5825 220.869 27.5825 218.963L27.5864 109.633C27.5864 107.727 29.1333 106.18 31.0395 106.18C32.9457 106.18 34.4926 107.727 34.4926 109.633V218.963C34.4887 220.865 32.9457 222.416 31.0356 222.416H31.0356Z" fill="#CB1717"/>
<path d="M17.2256 202.636C15.3194 202.636 13.7725 201.089 13.7725 199.183V131.663C13.7725 129.757 15.3194 128.21 17.2256 128.21C19.1318 128.21 20.6787 129.757 20.6787 131.663V199.183C20.6787 201.085 19.1318 202.636 17.2256 202.636Z" fill="#CB1717"/>
<path d="M3.4258 174.746C2.98439 174.746 2.54298 174.692 2.09769 174.473C1.71097 174.305 1.32425 174.086 0.996094 173.754C0.664064 173.422 0.386716 173.035 0.222656 172.652C0.0546862 172.207 0 171.766 0 171.32C0 170.824 0.0546843 170.383 0.222656 169.996C0.386716 169.555 0.664064 169.168 0.996094 168.836C1.26953 168.559 1.71484 168.281 2.09769 168.117C3.36719 167.567 4.918 167.895 5.8555 168.836C6.51956 169.496 6.9063 170.383 6.9063 171.32C6.9063 172.203 6.51958 173.09 5.8555 173.75C5.19144 174.414 4.3086 174.746 3.4258 174.746Z" fill="#CB1717"/>
<path d="M251.996 340.466C250.089 340.466 248.542 338.919 248.542 337.013V197.833C248.542 195.931 250.089 194.38 251.996 194.38C253.902 194.38 255.449 195.927 255.449 197.833V337.013C255.449 338.919 253.902 340.466 251.996 340.466Z" fill="#CB1717"/>
<path d="M238.186 340.097C236.28 340.097 234.733 338.55 234.733 336.643V197.353C234.733 195.451 236.28 193.9 238.186 193.9C240.092 193.9 241.639 195.447 241.639 197.353V336.643C241.639 338.546 240.092 340.097 238.186 340.097V340.097Z" fill="#CB1717"/>
<path d="M224.376 338.966C222.47 338.966 220.923 337.419 220.923 335.513V195.993C220.923 194.091 222.47 192.54 224.376 192.54C226.282 192.54 227.829 194.087 227.829 195.993V335.513C227.829 337.419 226.286 338.966 224.376 338.966V338.966Z" fill="#CB1717"/>
<path d="M210.566 337.056C208.66 337.056 207.113 335.509 207.113 333.603V193.793C207.113 191.891 208.66 190.34 210.566 190.34C212.472 190.34 214.019 191.887 214.019 193.793V333.603C214.019 335.509 212.472 337.056 210.566 337.056Z" fill="#CB1717"/>
<path d="M196.756 334.357C194.85 334.357 193.303 332.81 193.303 330.903V190.773C193.303 188.871 194.85 187.32 196.756 187.32C198.662 187.32 200.209 188.867 200.209 190.773V330.903C200.209 332.806 198.662 334.357 196.756 334.357Z" fill="#CB1717"/>
<path d="M182.946 330.807C181.04 330.807 179.493 329.26 179.493 327.354V186.934C179.493 185.031 181.04 183.48 182.946 183.48C184.852 183.48 186.399 185.027 186.399 186.934V327.354C186.395 329.256 184.852 330.807 182.946 330.807Z" fill="#CB1717"/>
<path d="M169.136 326.417C167.23 326.417 165.683 324.87 165.683 322.963V182.313C165.683 180.411 167.23 178.86 169.136 178.86C171.042 178.86 172.589 180.407 172.589 182.313V322.963C172.589 324.87 171.042 326.417 169.136 326.417Z" fill="#CB1717"/>
<path d="M155.326 321.106C153.419 321.106 151.873 319.559 151.873 317.653V176.793C151.873 174.887 153.419 173.34 155.326 173.34C157.232 173.34 158.779 174.887 158.779 176.793V317.653C158.779 319.555 157.232 321.106 155.326 321.106V321.106Z" fill="#CB1717"/>
<path d="M265.806 146.526C263.903 146.526 262.353 144.979 262.353 143.073V55.6201C262.353 53.7139 263.899 52.167 265.806 52.167C267.708 52.167 269.259 53.7139 269.259 55.6201V143.073C269.259 144.979 267.712 146.526 265.806 146.526Z" fill="#CB1717"/>
<path d="M279.616 147.877C277.713 147.877 276.163 146.33 276.163 144.423V45.0644C276.163 43.1582 277.709 41.6113 279.616 41.6113C281.518 41.6113 283.069 43.1582 283.069 45.0644V144.427C283.065 146.334 281.518 147.877 279.616 147.877V147.877Z" fill="#CB1717"/>
<path d="M293.426 150.096C291.523 150.096 289.973 148.549 289.973 146.643V33.0928C289.973 31.1866 291.52 29.6396 293.426 29.6396C295.328 29.6396 296.879 31.1866 296.879 33.0928V146.643C296.879 148.549 295.328 150.092 293.426 150.092V150.096Z" fill="#CB1717"/>
<path d="M307.236 153.116C305.334 153.116 303.783 151.569 303.783 149.663V21.7529C303.783 19.8467 305.33 18.2998 307.236 18.2998C309.138 18.2998 310.689 19.8467 310.689 21.7529V149.663C310.689 151.569 309.142 153.116 307.236 153.116Z" fill="#CB1717"/>
<path d="M321.046 156.946C319.144 156.946 317.593 155.399 317.593 153.493L317.597 12.3828C317.597 10.4766 319.144 8.92969 321.05 8.92969C322.952 8.92969 324.503 10.4766 324.503 12.3828V153.493C324.499 155.403 322.952 156.946 321.046 156.946H321.046Z" fill="#CB1717"/>
<path d="M334.856 161.586C332.954 161.586 331.403 160.039 331.403 158.133V5.97263C331.403 4.06643 332.95 2.51953 334.856 2.51953C336.758 2.51953 338.309 4.06643 338.309 5.97263V158.133C338.309 160.039 336.758 161.586 334.856 161.586Z" fill="#CB1717"/>
<path d="M348.666 167.086C346.764 167.086 345.213 165.539 345.213 163.633V3.4531C345.213 1.5469 346.76 0 348.666 0C350.568 0 352.119 1.5469 352.119 3.4531V163.633C352.119 165.539 350.568 167.086 348.666 167.086Z" fill="#CB1717"/>
<path d="M362.476 314.876C360.573 314.876 359.022 313.329 359.022 311.423V5.58298C359.022 3.67678 360.569 2.12988 362.476 2.12988C364.378 2.12988 365.929 3.67678 365.929 5.58298V311.423C365.929 313.325 364.382 314.876 362.476 314.876Z" fill="#CB1717"/>
<path d="M376.286 307.666C374.383 307.666 372.833 306.119 372.833 304.213V12.2832C372.833 10.377 374.379 8.83008 376.286 8.83008C378.188 8.83008 379.739 10.377 379.739 12.2832V304.213C379.735 306.115 378.188 307.662 376.286 307.662V307.666Z" fill="#CB1717"/>
<path d="M390.096 299.416C388.193 299.416 386.643 297.869 386.643 295.963V21.623C386.643 19.7168 388.189 18.1699 390.096 18.1699C391.998 18.1699 393.549 19.7168 393.549 21.623V295.963C393.549 297.865 391.998 299.412 390.096 299.412V299.416Z" fill="#CB1717"/>
<path d="M403.906 290.056C402.003 290.056 400.453 288.509 400.453 286.603V32.7431C400.453 30.8369 402 29.29 403.906 29.29C405.808 29.29 407.359 30.8369 407.359 32.7431V286.603C407.359 288.509 405.812 290.056 403.906 290.056Z" fill="#CB1717"/>
<path d="M417.706 279.516C415.804 279.516 414.253 277.969 414.253 276.063L414.257 45.2832C414.257 43.377 415.804 41.8301 417.71 41.8301C419.612 41.8301 421.163 43.377 421.163 45.2832V276.063C421.159 277.969 419.612 279.516 417.706 279.516V279.516Z" fill="#CB1717"/>
<path d="M431.526 267.667C429.624 267.667 428.073 266.12 428.073 264.214V59.1435C428.073 57.2373 429.62 55.6904 431.526 55.6904C433.428 55.6904 434.979 57.2373 434.979 59.1435V264.214C434.975 266.12 433.428 267.667 431.526 267.667Z" fill="#CB1717"/>
<path d="M445.336 254.367C443.434 254.367 441.883 252.82 441.883 250.913V74.3134C441.883 72.4072 443.43 70.8604 445.336 70.8604C447.238 70.8604 448.789 72.4072 448.789 74.3134V250.913C448.789 252.82 447.238 254.367 445.336 254.367Z" fill="#CB1717"/>
<path d="M459.136 239.426C457.233 239.426 455.683 237.88 455.683 235.973V90.9834C455.683 89.0772 457.23 87.5303 459.136 87.5303C461.038 87.5303 462.589 89.0772 462.589 90.9834V235.963C462.589 237.87 461.042 239.42 459.136 239.42V239.426Z" fill="#CB1717"/>
<path d="M472.956 222.416C471.054 222.416 469.503 220.869 469.503 218.963V109.633C469.503 107.727 471.05 106.18 472.956 106.18C474.858 106.18 476.409 107.727 476.409 109.633V218.963C476.405 220.865 474.858 222.416 472.956 222.416Z" fill="#CB1717"/>
<path d="M486.766 202.636C484.863 202.636 483.312 201.089 483.312 199.183V131.663C483.312 129.757 484.859 128.21 486.766 128.21C488.668 128.21 490.219 129.757 490.219 131.663V199.183C490.219 201.085 488.668 202.636 486.766 202.636Z" fill="#CB1717"/>
<path d="M500.566 174.746C499.683 174.746 498.742 174.414 498.132 173.75C497.804 173.418 497.527 173.031 497.363 172.648C497.195 172.207 497.089 171.766 497.089 171.32C497.089 170.383 497.472 169.496 498.136 168.836C499.41 167.566 501.73 167.566 502.996 168.836C503.656 169.5 503.992 170.383 503.992 171.32C503.992 171.762 503.933 172.203 503.769 172.648C503.601 173.035 503.328 173.418 502.992 173.75C502.664 174.082 502.273 174.305 501.89 174.469C501.453 174.695 501.007 174.746 500.566 174.746V174.746Z" fill="#CB1717"/>
<path d="M265.806 340.097C263.903 340.097 262.353 338.55 262.353 336.643V197.353C262.353 195.451 263.899 193.9 265.806 193.9C267.708 193.9 269.259 195.447 269.259 197.353V336.643C269.259 338.546 267.712 340.097 265.806 340.097V340.097Z" fill="#CB1717"/>
<path d="M279.616 338.966C277.713 338.966 276.163 337.419 276.163 335.513V195.993C276.163 194.091 277.709 192.54 279.616 192.54C281.518 192.54 283.069 194.087 283.069 195.993V335.513C283.065 337.419 281.518 338.966 279.616 338.966V338.966Z" fill="#CB1717"/>
<path d="M293.426 337.056C291.523 337.056 289.973 335.509 289.973 333.603V193.793C289.973 191.891 291.52 190.34 293.426 190.34C295.328 190.34 296.879 191.887 296.879 193.793V333.603C296.879 335.509 295.328 337.056 293.426 337.056Z" fill="#CB1717"/>
<path d="M307.236 334.357C305.334 334.357 303.783 332.81 303.783 330.903V190.773C303.783 188.871 305.33 187.32 307.236 187.32C309.138 187.32 310.689 188.867 310.689 190.773V330.903C310.689 332.806 309.142 334.357 307.236 334.357Z" fill="#CB1717"/>
<path d="M321.046 330.807C319.144 330.807 317.593 329.26 317.593 327.354L317.597 186.934C317.597 185.031 319.144 183.48 321.05 183.48C322.952 183.48 324.503 185.027 324.503 186.934V327.354C324.499 329.256 322.952 330.807 321.046 330.807H321.046Z" fill="#CB1717"/>
<path d="M334.856 326.417C332.954 326.417 331.403 324.87 331.403 322.963V182.313C331.403 180.411 332.95 178.86 334.856 178.86C336.758 178.86 338.309 180.407 338.309 182.313V322.963C338.309 324.87 336.758 326.417 334.856 326.417Z" fill="#CB1717"/>
<path d="M348.666 321.106C346.764 321.106 345.213 319.559 345.213 317.653V176.793C345.213 174.887 346.76 173.34 348.666 173.34C350.568 173.34 352.119 174.887 352.119 176.793V317.653C352.119 319.555 350.568 321.106 348.666 321.106Z" fill="#CB1717"/>
</svg>
